<mxfile host="app.diagrams.net" modified="2022-07-21T08:02:54.590Z" agent="5.0 (Windows NT 10.0; Win64; x64) AppleWebKit/537.36 (KHTML, like Gecko) Chrome/103.0.0.0 Safari/537.36" etag="J5JLFZ4g3ODSLmLwFZ3P" version="20.1.1" type="github">
  <diagram id="uQPn7x7gHJ_kswakGB5N" name="Page-1">
    <mxGraphModel dx="1221" dy="634" grid="1" gridSize="10" guides="1" tooltips="1" connect="1" arrows="1" fold="1" page="1" pageScale="1" pageWidth="827" pageHeight="1169" math="0" shadow="0">
      <root>
        <mxCell id="0" />
        <mxCell id="1" parent="0" />
        <mxCell id="fbdIizS-qc11gaaSqFYd-1" value="&lt;p style=&quot;margin: 4px 0px 0px; text-align: center;&quot;&gt;&lt;b&gt;&lt;u&gt;live_item&lt;/u&gt;&lt;/b&gt;&lt;br&gt;&lt;/p&gt;&lt;hr&gt;&lt;p style=&quot;margin: 0px; margin-left: 8px;&quot;&gt;ld&lt;/p&gt;&lt;p style=&quot;margin: 0px; margin-left: 8px;&quot;&gt;liveid&lt;/p&gt;&lt;p style=&quot;margin: 0px; margin-left: 8px;&quot;&gt;roomId&lt;/p&gt;&lt;p style=&quot;margin: 0px; margin-left: 8px;&quot;&gt;itemCode&lt;/p&gt;&lt;p style=&quot;margin: 0px; margin-left: 8px;&quot;&gt;itemType&lt;/p&gt;&lt;p style=&quot;margin: 0px; margin-left: 8px;&quot;&gt;itemSkuId&lt;/p&gt;" style="verticalAlign=top;align=left;overflow=fill;fontSize=12;fontFamily=Helvetica;html=1;strokeColor=#788AA3;shadow=1;fillColor=#B2C9AB;fontColor=#46495D;" parent="1" vertex="1">
          <mxGeometry x="260" y="373.35999999999984" width="160" height="160" as="geometry" />
        </mxCell>
        <mxCell id="fbdIizS-qc11gaaSqFYd-2" value="&lt;p style=&quot;margin: 4px 0px 0px; text-align: center;&quot;&gt;&lt;b&gt;&lt;u&gt;live_record&lt;/u&gt;&lt;/b&gt;&lt;br&gt;&lt;/p&gt;&lt;hr&gt;&lt;p style=&quot;margin: 0px; margin-left: 8px;&quot;&gt;ld&lt;/p&gt;&lt;p style=&quot;margin: 0px; margin-left: 8px;&quot;&gt;liveId&lt;/p&gt;&lt;p style=&quot;margin: 0px; margin-left: 8px;&quot;&gt;roomId&lt;/p&gt;&lt;p style=&quot;margin: 0px; margin-left: 8px;&quot;&gt;&lt;br&gt;&lt;/p&gt;" style="verticalAlign=top;align=left;overflow=fill;fontSize=12;fontFamily=Helvetica;html=1;strokeColor=#788AA3;shadow=1;fillColor=#B2C9AB;fontColor=#46495D;" parent="1" vertex="1">
          <mxGeometry x="260" y="70.00000000000037" width="160" height="160" as="geometry" />
        </mxCell>
        <mxCell id="fbdIizS-qc11gaaSqFYd-7" value="" style="html=1;verticalAlign=bottom;startArrow=circle;startFill=1;endArrow=open;startSize=6;endSize=8;rounded=0;entryX=0.5;entryY=1;entryDx=0;entryDy=0;strokeColor=#788AA3;fontColor=#46495D;" parent="1" target="fbdIizS-qc11gaaSqFYd-2" edge="1">
          <mxGeometry width="80" relative="1" as="geometry">
            <mxPoint x="340" y="378.36" as="sourcePoint" />
            <mxPoint x="420" y="368.36" as="targetPoint" />
          </mxGeometry>
        </mxCell>
        <mxCell id="fbdIizS-qc11gaaSqFYd-8" value="1" style="edgeLabel;html=1;align=center;verticalAlign=middle;resizable=0;points=[];fontColor=#46495D;" parent="fbdIizS-qc11gaaSqFYd-7" vertex="1" connectable="0">
          <mxGeometry x="0.6676" y="2" relative="1" as="geometry">
            <mxPoint as="offset" />
          </mxGeometry>
        </mxCell>
        <mxCell id="fbdIizS-qc11gaaSqFYd-9" value="n" style="edgeLabel;html=1;align=center;verticalAlign=middle;resizable=0;points=[];fontColor=#46495D;" parent="fbdIizS-qc11gaaSqFYd-7" vertex="1" connectable="0">
          <mxGeometry x="-0.5483" y="-2" relative="1" as="geometry">
            <mxPoint as="offset" />
          </mxGeometry>
        </mxCell>
        <mxCell id="fbdIizS-qc11gaaSqFYd-10" value="&lt;p style=&quot;margin: 4px 0px 0px; text-align: center;&quot;&gt;&lt;span style=&quot;color: rgb(0, 0, 0); text-align: left;&quot;&gt;live_appoint&lt;/span&gt;&lt;br&gt;&lt;/p&gt;&lt;hr&gt;&lt;p style=&quot;margin: 0px; margin-left: 8px;&quot;&gt;ld&lt;/p&gt;&lt;p style=&quot;margin: 0px; margin-left: 8px;&quot;&gt;liveId&lt;/p&gt;&lt;p style=&quot;margin: 0px; margin-left: 8px;&quot;&gt;roomId&lt;/p&gt;&lt;p style=&quot;margin: 0px; margin-left: 8px;&quot;&gt;appointNo&lt;/p&gt;&lt;p style=&quot;margin: 0px; margin-left: 8px;&quot;&gt;userId 主播id&lt;/p&gt;&lt;p style=&quot;margin: 0px; margin-left: 8px;&quot;&gt;&lt;br&gt;&lt;/p&gt;" style="verticalAlign=top;align=left;overflow=fill;fontSize=12;fontFamily=Helvetica;html=1;strokeColor=#788AA3;shadow=1;fillColor=#B2C9AB;fontColor=#46495D;" parent="1" vertex="1">
          <mxGeometry x="630" y="70.00000000000037" width="160" height="160" as="geometry" />
        </mxCell>
        <mxCell id="fbdIizS-qc11gaaSqFYd-11" value="&lt;p style=&quot;margin: 4px 0px 0px; text-align: center;&quot;&gt;&lt;span style=&quot;color: rgb(0, 0, 0); text-align: left;&quot;&gt;live_appoint_subscribe&lt;/span&gt;&lt;br&gt;&lt;/p&gt;&lt;hr&gt;&lt;p style=&quot;margin: 0px; margin-left: 8px;&quot;&gt;ld&lt;/p&gt;&lt;p style=&quot;margin: 0px; margin-left: 8px;&quot;&gt;liveId&lt;/p&gt;&lt;p style=&quot;margin: 0px; margin-left: 8px;&quot;&gt;roomId&lt;/p&gt;&lt;p style=&quot;margin: 0px; margin-left: 8px;&quot;&gt;appointNo&lt;/p&gt;&lt;p style=&quot;margin: 0px; margin-left: 8px;&quot;&gt;userId 用户id&lt;/p&gt;&lt;p style=&quot;margin: 0px; margin-left: 8px;&quot;&gt;&lt;br&gt;&lt;/p&gt;" style="verticalAlign=top;align=left;overflow=fill;fontSize=12;fontFamily=Helvetica;html=1;strokeColor=#788AA3;shadow=1;fillColor=#B2C9AB;fontColor=#46495D;" parent="1" vertex="1">
          <mxGeometry x="630" y="290.00000000000034" width="160" height="160" as="geometry" />
        </mxCell>
        <mxCell id="fbdIizS-qc11gaaSqFYd-12" value="" style="endArrow=block;startArrow=block;endFill=1;startFill=1;html=1;rounded=0;entryX=-0.017;entryY=0.565;entryDx=0;entryDy=0;entryPerimeter=0;strokeColor=#788AA3;fontColor=#46495D;" parent="1" target="fbdIizS-qc11gaaSqFYd-10" edge="1">
          <mxGeometry width="160" relative="1" as="geometry">
            <mxPoint x="420" y="160" as="sourcePoint" />
            <mxPoint x="580" y="160" as="targetPoint" />
          </mxGeometry>
        </mxCell>
        <mxCell id="fbdIizS-qc11gaaSqFYd-13" value="1" style="edgeLabel;html=1;align=center;verticalAlign=middle;resizable=0;points=[];fontColor=#46495D;" parent="fbdIizS-qc11gaaSqFYd-12" vertex="1" connectable="0">
          <mxGeometry x="-0.5676" y="-1" relative="1" as="geometry">
            <mxPoint as="offset" />
          </mxGeometry>
        </mxCell>
        <mxCell id="fbdIizS-qc11gaaSqFYd-14" value="1" style="edgeLabel;html=1;align=center;verticalAlign=middle;resizable=0;points=[];fontColor=#46495D;" parent="fbdIizS-qc11gaaSqFYd-12" vertex="1" connectable="0">
          <mxGeometry x="0.6848" y="-5" relative="1" as="geometry">
            <mxPoint as="offset" />
          </mxGeometry>
        </mxCell>
        <mxCell id="fbdIizS-qc11gaaSqFYd-15" value="" style="html=1;verticalAlign=bottom;startArrow=circle;startFill=1;endArrow=open;startSize=6;endSize=8;rounded=0;entryX=1;entryY=0.75;entryDx=0;entryDy=0;edgeStyle=orthogonalEdgeStyle;strokeColor=#788AA3;fontColor=#46495D;" parent="1" target="fbdIizS-qc11gaaSqFYd-2" edge="1">
          <mxGeometry width="80" relative="1" as="geometry">
            <mxPoint x="630" y="370" as="sourcePoint" />
            <mxPoint x="500" y="200" as="targetPoint" />
          </mxGeometry>
        </mxCell>
        <mxCell id="fbdIizS-qc11gaaSqFYd-16" value="1" style="edgeLabel;html=1;align=center;verticalAlign=middle;resizable=0;points=[];fontColor=#46495D;" parent="fbdIizS-qc11gaaSqFYd-15" vertex="1" connectable="0">
          <mxGeometry x="0.8255" y="1" relative="1" as="geometry">
            <mxPoint as="offset" />
          </mxGeometry>
        </mxCell>
        <mxCell id="fbdIizS-qc11gaaSqFYd-17" value="n" style="edgeLabel;html=1;align=center;verticalAlign=middle;resizable=0;points=[];fontColor=#46495D;" parent="fbdIizS-qc11gaaSqFYd-15" vertex="1" connectable="0">
          <mxGeometry x="-0.7983" y="-1" relative="1" as="geometry">
            <mxPoint x="1" as="offset" />
          </mxGeometry>
        </mxCell>
        <mxCell id="fbdIizS-qc11gaaSqFYd-18" value="&lt;p style=&quot;margin: 4px 0px 0px; text-align: center;&quot;&gt;&lt;span style=&quot;color: rgb(0, 0, 0); text-align: left;&quot;&gt;live_audience&lt;/span&gt;&lt;br&gt;&lt;/p&gt;&lt;hr&gt;&lt;p style=&quot;margin: 0px; margin-left: 8px;&quot;&gt;ld&lt;/p&gt;&lt;p style=&quot;margin: 0px; margin-left: 8px;&quot;&gt;liveId&lt;/p&gt;&lt;p style=&quot;margin: 0px; margin-left: 8px;&quot;&gt;roomId&lt;/p&gt;&lt;p style=&quot;margin: 0px; margin-left: 8px;&quot;&gt;userId&lt;/p&gt;&lt;p style=&quot;margin: 0px; margin-left: 8px;&quot;&gt;deviceId&lt;/p&gt;&lt;p style=&quot;margin: 0px; margin-left: 8px;&quot;&gt;commentNum&lt;br&gt;&lt;/p&gt;&lt;p style=&quot;margin: 0px; margin-left: 8px;&quot;&gt;shareNum&lt;/p&gt;&lt;p style=&quot;margin: 0px; margin-left: 8px;&quot;&gt;likeNum&lt;/p&gt;&lt;p style=&quot;margin: 0px; margin-left: 8px;&quot;&gt;status&lt;/p&gt;" style="verticalAlign=top;align=left;overflow=fill;fontSize=12;fontFamily=Helvetica;html=1;strokeColor=#788AA3;shadow=1;fillColor=#B2C9AB;fontColor=#46495D;" parent="1" vertex="1">
          <mxGeometry x="630" y="490" width="160" height="170" as="geometry" />
        </mxCell>
        <mxCell id="fbdIizS-qc11gaaSqFYd-19" value="" style="html=1;verticalAlign=bottom;startArrow=circle;startFill=1;endArrow=open;startSize=6;endSize=8;rounded=0;entryX=1;entryY=1;entryDx=0;entryDy=0;exitX=-0.019;exitY=0.577;exitDx=0;exitDy=0;exitPerimeter=0;edgeStyle=orthogonalEdgeStyle;strokeColor=#788AA3;fontColor=#46495D;" parent="1" source="fbdIizS-qc11gaaSqFYd-18" target="fbdIizS-qc11gaaSqFYd-2" edge="1">
          <mxGeometry width="80" relative="1" as="geometry">
            <mxPoint x="640" y="380" as="sourcePoint" />
            <mxPoint x="430" y="220.00000000000034" as="targetPoint" />
            <Array as="points">
              <mxPoint x="627" y="598" />
              <mxPoint x="470" y="598" />
              <mxPoint x="470" y="230" />
            </Array>
          </mxGeometry>
        </mxCell>
        <mxCell id="fbdIizS-qc11gaaSqFYd-20" value="1" style="edgeLabel;html=1;align=center;verticalAlign=middle;resizable=0;points=[];fontColor=#46495D;" parent="fbdIizS-qc11gaaSqFYd-19" vertex="1" connectable="0">
          <mxGeometry x="0.8255" y="1" relative="1" as="geometry">
            <mxPoint x="-19" y="-1" as="offset" />
          </mxGeometry>
        </mxCell>
        <mxCell id="fbdIizS-qc11gaaSqFYd-21" value="n" style="edgeLabel;html=1;align=center;verticalAlign=middle;resizable=0;points=[];fontColor=#46495D;" parent="fbdIizS-qc11gaaSqFYd-19" vertex="1" connectable="0">
          <mxGeometry x="-0.7983" y="-1" relative="1" as="geometry">
            <mxPoint x="1" as="offset" />
          </mxGeometry>
        </mxCell>
      </root>
    </mxGraphModel>
  </diagram>
</mxfile>
